<mxfile host="app.diagrams.net" modified="2022-11-02T04:01:55.187Z" agent="5.0 (Windows NT 10.0; Win64; x64) AppleWebKit/537.36 (KHTML, like Gecko) Chrome/103.0.0.0 Safari/537.36" etag="jTh8UYVuiSL8bySButUL" version="20.5.1" type="github">
  <diagram id="fJQxoJf5jhGwblM7NqLG" name="第 1 页">
    <mxGraphModel dx="1422" dy="762" grid="0" gridSize="10" guides="1" tooltips="1" connect="1" arrows="1" fold="1" page="1" pageScale="1" pageWidth="4681" pageHeight="3300" math="0" shadow="0">
      <root>
        <mxCell id="0" />
        <mxCell id="1" parent="0" />
        <mxCell id="TgsDMeZz0ZNmJRAmqob0-39" value="" style="rounded=0;whiteSpace=wrap;html=1;fillColor=none;" vertex="1" parent="1">
          <mxGeometry x="346.75" y="920" width="541.5" height="314" as="geometry" />
        </mxCell>
        <mxCell id="TgsDMeZz0ZNmJRAmqob0-1" value="java程序&lt;br&gt;" style="rounded=0;whiteSpace=wrap;html=1;align=center;" vertex="1" parent="1">
          <mxGeometry x="310" y="210" width="500" height="60" as="geometry" />
        </mxCell>
        <mxCell id="TgsDMeZz0ZNmJRAmqob0-2" value="接口（java 厂商制定规则）" style="rounded=1;whiteSpace=wrap;html=1;" vertex="1" parent="1">
          <mxGeometry x="475" y="300" width="170" height="60" as="geometry" />
        </mxCell>
        <mxCell id="TgsDMeZz0ZNmJRAmqob0-3" value="MySQL定义类来实现接口来操作MySQL数据库，类打包成jar包" style="rounded=1;whiteSpace=wrap;html=1;" vertex="1" parent="1">
          <mxGeometry x="285" y="390" width="120" height="60" as="geometry" />
        </mxCell>
        <mxCell id="TgsDMeZz0ZNmJRAmqob0-4" value="Oracle定义类来实现接口来操作Oracle数据库，类打包成jar包" style="rounded=1;whiteSpace=wrap;html=1;" vertex="1" parent="1">
          <mxGeometry x="435" y="390" width="120" height="60" as="geometry" />
        </mxCell>
        <mxCell id="TgsDMeZz0ZNmJRAmqob0-5" value="db2定义类来实现接口来操作db2数据库，类打包成jar包" style="rounded=1;whiteSpace=wrap;html=1;" vertex="1" parent="1">
          <mxGeometry x="575" y="390" width="120" height="60" as="geometry" />
        </mxCell>
        <mxCell id="TgsDMeZz0ZNmJRAmqob0-6" value="sql server定义类来实现接口来操作sql server数据库，类打包成jar包" style="rounded=1;whiteSpace=wrap;html=1;" vertex="1" parent="1">
          <mxGeometry x="715" y="390" width="120" height="60" as="geometry" />
        </mxCell>
        <mxCell id="TgsDMeZz0ZNmJRAmqob0-7" value="MySQL数据库" style="rounded=0;whiteSpace=wrap;html=1;" vertex="1" parent="1">
          <mxGeometry x="285" y="490" width="120" height="60" as="geometry" />
        </mxCell>
        <mxCell id="TgsDMeZz0ZNmJRAmqob0-8" value="server数据库" style="rounded=0;whiteSpace=wrap;html=1;" vertex="1" parent="1">
          <mxGeometry x="715" y="490" width="120" height="60" as="geometry" />
        </mxCell>
        <mxCell id="TgsDMeZz0ZNmJRAmqob0-9" value="db2数据库" style="rounded=0;whiteSpace=wrap;html=1;" vertex="1" parent="1">
          <mxGeometry x="575" y="490" width="120" height="60" as="geometry" />
        </mxCell>
        <mxCell id="TgsDMeZz0ZNmJRAmqob0-10" value="Oracle数据库" style="rounded=0;whiteSpace=wrap;html=1;" vertex="1" parent="1">
          <mxGeometry x="435" y="490" width="120" height="60" as="geometry" />
        </mxCell>
        <mxCell id="TgsDMeZz0ZNmJRAmqob0-11" value="" style="endArrow=classic;html=1;rounded=0;exitX=0.5;exitY=1;exitDx=0;exitDy=0;entryX=0.5;entryY=0;entryDx=0;entryDy=0;" edge="1" parent="1" source="TgsDMeZz0ZNmJRAmqob0-1" target="TgsDMeZz0ZNmJRAmqob0-2">
          <mxGeometry width="50" height="50" relative="1" as="geometry">
            <mxPoint x="590" y="390" as="sourcePoint" />
            <mxPoint x="640" y="340" as="targetPoint" />
          </mxGeometry>
        </mxCell>
        <mxCell id="TgsDMeZz0ZNmJRAmqob0-12" value="" style="endArrow=classic;html=1;rounded=0;exitX=0.5;exitY=1;exitDx=0;exitDy=0;entryX=0.5;entryY=0;entryDx=0;entryDy=0;" edge="1" parent="1" source="TgsDMeZz0ZNmJRAmqob0-2" target="TgsDMeZz0ZNmJRAmqob0-3">
          <mxGeometry width="50" height="50" relative="1" as="geometry">
            <mxPoint x="590" y="390" as="sourcePoint" />
            <mxPoint x="640" y="340" as="targetPoint" />
          </mxGeometry>
        </mxCell>
        <mxCell id="TgsDMeZz0ZNmJRAmqob0-13" value="" style="endArrow=classic;html=1;rounded=0;exitX=0.5;exitY=1;exitDx=0;exitDy=0;entryX=0.5;entryY=0;entryDx=0;entryDy=0;" edge="1" parent="1" source="TgsDMeZz0ZNmJRAmqob0-2" target="TgsDMeZz0ZNmJRAmqob0-6">
          <mxGeometry width="50" height="50" relative="1" as="geometry">
            <mxPoint x="570" y="370" as="sourcePoint" />
            <mxPoint x="355" y="400" as="targetPoint" />
          </mxGeometry>
        </mxCell>
        <mxCell id="TgsDMeZz0ZNmJRAmqob0-14" value="" style="endArrow=classic;html=1;rounded=0;entryX=0.5;entryY=0;entryDx=0;entryDy=0;exitX=0.5;exitY=1;exitDx=0;exitDy=0;" edge="1" parent="1" source="TgsDMeZz0ZNmJRAmqob0-2" target="TgsDMeZz0ZNmJRAmqob0-5">
          <mxGeometry width="50" height="50" relative="1" as="geometry">
            <mxPoint x="560" y="370" as="sourcePoint" />
            <mxPoint x="785" y="400" as="targetPoint" />
          </mxGeometry>
        </mxCell>
        <mxCell id="TgsDMeZz0ZNmJRAmqob0-15" value="" style="endArrow=classic;html=1;rounded=0;entryX=0.5;entryY=0;entryDx=0;entryDy=0;exitX=0.5;exitY=1;exitDx=0;exitDy=0;" edge="1" parent="1" source="TgsDMeZz0ZNmJRAmqob0-2" target="TgsDMeZz0ZNmJRAmqob0-4">
          <mxGeometry width="50" height="50" relative="1" as="geometry">
            <mxPoint x="570" y="370" as="sourcePoint" />
            <mxPoint x="645" y="400" as="targetPoint" />
          </mxGeometry>
        </mxCell>
        <mxCell id="TgsDMeZz0ZNmJRAmqob0-16" value="" style="endArrow=classic;html=1;rounded=0;exitX=0.5;exitY=1;exitDx=0;exitDy=0;entryX=0.5;entryY=0;entryDx=0;entryDy=0;" edge="1" parent="1" source="TgsDMeZz0ZNmJRAmqob0-3" target="TgsDMeZz0ZNmJRAmqob0-7">
          <mxGeometry width="50" height="50" relative="1" as="geometry">
            <mxPoint x="570" y="280" as="sourcePoint" />
            <mxPoint x="570" y="310" as="targetPoint" />
          </mxGeometry>
        </mxCell>
        <mxCell id="TgsDMeZz0ZNmJRAmqob0-17" value="" style="endArrow=classic;html=1;rounded=0;exitX=0.5;exitY=1;exitDx=0;exitDy=0;entryX=0.5;entryY=0;entryDx=0;entryDy=0;" edge="1" parent="1">
          <mxGeometry width="50" height="50" relative="1" as="geometry">
            <mxPoint x="494.8" y="450" as="sourcePoint" />
            <mxPoint x="494.8" y="490" as="targetPoint" />
          </mxGeometry>
        </mxCell>
        <mxCell id="TgsDMeZz0ZNmJRAmqob0-18" value="" style="endArrow=classic;html=1;rounded=0;exitX=0.5;exitY=1;exitDx=0;exitDy=0;entryX=0.5;entryY=0;entryDx=0;entryDy=0;" edge="1" parent="1">
          <mxGeometry width="50" height="50" relative="1" as="geometry">
            <mxPoint x="634.8" y="450" as="sourcePoint" />
            <mxPoint x="634.8" y="490" as="targetPoint" />
          </mxGeometry>
        </mxCell>
        <mxCell id="TgsDMeZz0ZNmJRAmqob0-19" value="" style="endArrow=classic;html=1;rounded=0;exitX=0.5;exitY=1;exitDx=0;exitDy=0;entryX=0.5;entryY=0;entryDx=0;entryDy=0;" edge="1" parent="1">
          <mxGeometry width="50" height="50" relative="1" as="geometry">
            <mxPoint x="774.8" y="450" as="sourcePoint" />
            <mxPoint x="774.8" y="490" as="targetPoint" />
          </mxGeometry>
        </mxCell>
        <mxCell id="TgsDMeZz0ZNmJRAmqob0-20" value="当前项目&lt;br&gt;java.sql.DriverManager" style="rounded=0;whiteSpace=wrap;html=1;align=center;" vertex="1" parent="1">
          <mxGeometry x="537.5" y="1025" width="160" height="60" as="geometry" />
        </mxCell>
        <mxCell id="TgsDMeZz0ZNmJRAmqob0-21" value="java.sql.drive&lt;br&gt;java.sql.connection&lt;br&gt;" style="rounded=1;whiteSpace=wrap;html=1;fillColor=none;dashed=1;" vertex="1" parent="1">
          <mxGeometry x="532.5" y="1120" width="170" height="60" as="geometry" />
        </mxCell>
        <mxCell id="TgsDMeZz0ZNmJRAmqob0-23" value="API(数据库选择）&lt;br&gt;DriverImpl类实现java.sql.drive" style="rounded=1;whiteSpace=wrap;html=1;fillColor=none;" vertex="1" parent="1">
          <mxGeometry x="240" y="1280" width="279" height="80" as="geometry" />
        </mxCell>
        <mxCell id="TgsDMeZz0ZNmJRAmqob0-29" value="MySQL数据库" style="rounded=0;whiteSpace=wrap;html=1;" vertex="1" parent="1">
          <mxGeometry x="517" y="1470" width="201" height="117" as="geometry" />
        </mxCell>
        <mxCell id="TgsDMeZz0ZNmJRAmqob0-30" value="" style="endArrow=classic;html=1;rounded=0;entryX=0.5;entryY=0;entryDx=0;entryDy=0;exitX=0;exitY=0.5;exitDx=0;exitDy=0;" edge="1" parent="1" source="TgsDMeZz0ZNmJRAmqob0-20" target="TgsDMeZz0ZNmJRAmqob0-23">
          <mxGeometry width="50" height="50" relative="1" as="geometry">
            <mxPoint x="609" y="1204" as="sourcePoint" />
            <mxPoint x="659" y="1154" as="targetPoint" />
            <Array as="points">
              <mxPoint x="380" y="1055" />
            </Array>
          </mxGeometry>
        </mxCell>
        <mxCell id="TgsDMeZz0ZNmJRAmqob0-36" value="" style="endArrow=classic;html=1;rounded=0;exitX=0;exitY=0.5;exitDx=0;exitDy=0;entryX=0.5;entryY=1;entryDx=0;entryDy=0;dashed=1;" edge="1" parent="1" source="TgsDMeZz0ZNmJRAmqob0-29" target="TgsDMeZz0ZNmJRAmqob0-23">
          <mxGeometry width="50" height="50" relative="1" as="geometry">
            <mxPoint x="379" y="1487" as="sourcePoint" />
            <mxPoint x="578.8" y="1302" as="targetPoint" />
            <Array as="points">
              <mxPoint x="380" y="1529" />
              <mxPoint x="380" y="1523" />
            </Array>
          </mxGeometry>
        </mxCell>
        <mxCell id="TgsDMeZz0ZNmJRAmqob0-41" value="实现驱动" style="text;html=1;strokeColor=none;fillColor=none;align=center;verticalAlign=middle;whiteSpace=wrap;rounded=0;" vertex="1" parent="1">
          <mxGeometry x="405" y="1500" width="60" height="30" as="geometry" />
        </mxCell>
        <mxCell id="TgsDMeZz0ZNmJRAmqob0-42" value="选择" style="text;html=1;strokeColor=none;fillColor=none;align=center;verticalAlign=middle;whiteSpace=wrap;rounded=0;" vertex="1" parent="1">
          <mxGeometry x="405" y="1029" width="60" height="30" as="geometry" />
        </mxCell>
        <mxCell id="TgsDMeZz0ZNmJRAmqob0-43" value="" style="endArrow=classic;html=1;rounded=0;exitX=1;exitY=0.5;exitDx=0;exitDy=0;entryX=0;entryY=0.5;entryDx=0;entryDy=0;" edge="1" parent="1" source="TgsDMeZz0ZNmJRAmqob0-23" target="TgsDMeZz0ZNmJRAmqob0-48">
          <mxGeometry width="50" height="50" relative="1" as="geometry">
            <mxPoint x="490" y="1200" as="sourcePoint" />
            <mxPoint x="590" y="1320" as="targetPoint" />
            <Array as="points">
              <mxPoint x="540" y="1320" />
            </Array>
          </mxGeometry>
        </mxCell>
        <mxCell id="TgsDMeZz0ZNmJRAmqob0-44" value="告诉API对哪个数据库操作" style="text;html=1;strokeColor=none;fillColor=none;align=center;verticalAlign=middle;whiteSpace=wrap;rounded=0;" vertex="1" parent="1">
          <mxGeometry x="600" y="1280" width="55" height="30" as="geometry" />
        </mxCell>
        <mxCell id="TgsDMeZz0ZNmJRAmqob0-47" value="" style="endArrow=classic;html=1;rounded=0;exitX=1;exitY=0.5;exitDx=0;exitDy=0;entryX=0.5;entryY=1;entryDx=0;entryDy=0;dashed=1;" edge="1" parent="1" source="TgsDMeZz0ZNmJRAmqob0-29" target="TgsDMeZz0ZNmJRAmqob0-48">
          <mxGeometry width="50" height="50" relative="1" as="geometry">
            <mxPoint x="760" y="1195.4100000000003" as="sourcePoint" />
            <mxPoint x="760.9390000000001" y="1484.5910000000001" as="targetPoint" />
            <Array as="points">
              <mxPoint x="855" y="1529" />
            </Array>
          </mxGeometry>
        </mxCell>
        <mxCell id="TgsDMeZz0ZNmJRAmqob0-48" value="API(功能实现）&lt;br&gt;ConnectionImpl类实现java.sql.connection&lt;br&gt;......" style="rounded=1;whiteSpace=wrap;html=1;fillColor=none;" vertex="1" parent="1">
          <mxGeometry x="715" y="1280" width="279" height="80" as="geometry" />
        </mxCell>
        <mxCell id="TgsDMeZz0ZNmJRAmqob0-49" value="实现接口" style="text;html=1;strokeColor=none;fillColor=none;align=center;verticalAlign=middle;whiteSpace=wrap;rounded=0;" vertex="1" parent="1">
          <mxGeometry x="740" y="1500" width="60" height="30" as="geometry" />
        </mxCell>
        <mxCell id="TgsDMeZz0ZNmJRAmqob0-52" value="" style="endArrow=classic;html=1;rounded=0;dashed=1;exitX=0.203;exitY=1.044;exitDx=0;exitDy=0;exitPerimeter=0;entryX=0.365;entryY=-0.003;entryDx=0;entryDy=0;entryPerimeter=0;" edge="1" parent="1" source="TgsDMeZz0ZNmJRAmqob0-21" target="TgsDMeZz0ZNmJRAmqob0-29">
          <mxGeometry width="50" height="50" relative="1" as="geometry">
            <mxPoint x="600" y="1410" as="sourcePoint" />
            <mxPoint x="650" y="1360" as="targetPoint" />
            <Array as="points">
              <mxPoint x="567" y="1360" />
              <mxPoint x="590" y="1360" />
            </Array>
          </mxGeometry>
        </mxCell>
        <mxCell id="TgsDMeZz0ZNmJRAmqob0-53" value="交给数据库官方实现接口" style="text;html=1;strokeColor=none;fillColor=none;align=center;verticalAlign=middle;whiteSpace=wrap;rounded=0;dashed=1;" vertex="1" parent="1">
          <mxGeometry x="532.5" y="1400" width="60" height="30" as="geometry" />
        </mxCell>
        <mxCell id="TgsDMeZz0ZNmJRAmqob0-55" value="" style="endArrow=classic;html=1;rounded=0;exitX=0.101;exitY=1.023;exitDx=0;exitDy=0;exitPerimeter=0;entryX=0.762;entryY=0.001;entryDx=0;entryDy=0;entryPerimeter=0;" edge="1" parent="1" source="TgsDMeZz0ZNmJRAmqob0-48" target="TgsDMeZz0ZNmJRAmqob0-29">
          <mxGeometry width="50" height="50" relative="1" as="geometry">
            <mxPoint x="570" y="1340" as="sourcePoint" />
            <mxPoint x="620" y="1290" as="targetPoint" />
            <Array as="points">
              <mxPoint x="743" y="1400" />
              <mxPoint x="670" y="1400" />
            </Array>
          </mxGeometry>
        </mxCell>
        <mxCell id="TgsDMeZz0ZNmJRAmqob0-56" value="操作数据库" style="text;html=1;strokeColor=none;fillColor=none;align=center;verticalAlign=middle;whiteSpace=wrap;rounded=0;dashed=1;" vertex="1" parent="1">
          <mxGeometry x="670" y="1410" width="70" height="30" as="geometry" />
        </mxCell>
        <mxCell id="TgsDMeZz0ZNmJRAmqob0-57" value="&lt;font style=&quot;font-size: 25px;&quot;&gt;&lt;b&gt;Java&lt;/b&gt;&lt;/font&gt;" style="text;html=1;strokeColor=none;fillColor=none;align=center;verticalAlign=middle;whiteSpace=wrap;rounded=0;dashed=1;" vertex="1" parent="1">
          <mxGeometry x="360" y="934" width="84" height="39" as="geometry" />
        </mxCell>
      </root>
    </mxGraphModel>
  </diagram>
</mxfile>
